<svg width="26" height="23" viewBox="0 0 26 23" fill="none" xmlns="http://www.w3.org/2000/svg">
<path fill-rule="evenodd" clip-rule="evenodd" d="M15.5151 2.22444C15.5151 0.995917 16.518 0 17.7551 0H23.36C24.5971 0 25.6 0.995918 25.6 2.22445V20.6556C25.6 21.8841 24.5971 22.88 23.36 22.88H21.0328H16.4751H16.4365C15.8463 22.88 15.28 22.6487 14.8605 22.2364L0.758931 8.37279C0.27326 7.89531 0 7.24482 0 6.56615V2.22444C0 0.995917 1.00289 0 2.24001 0H3.87881H6.70475C7.37926 0 8.0265 0.264346 8.50584 0.735589L15.5151 7.62652V2.22444ZM0 15.2488C0 13.8371 1.71544 13.1265 2.72569 14.1197L5.81821 17.16L8.87172 20.162C9.88748 21.1606 9.17538 22.88 7.74605 22.88H1.60001C0.716348 22.88 0 22.1686 0 21.2911V15.2488Z" fill="white"/>
</svg>
